<?xml version="1.0" encoding="UTF-8"?>
<svg width="35px" height="50px" viewBox="0 0 35 50" version="1.1" xmlns="http://www.w3.org/2000/svg" xmlns:xlink="http://www.w3.org/1999/xlink">
    <title>Women</title>
    <g id="UdeA-Egresados-HD" stroke="none" stroke-width="1" fill="none" fill-rule="evenodd">
        <g id="---User-SingularContent-Academic-State-HD" transform="translate(-358.000000, -225.000000)" fill-rule="nonzero">
            <g id="Women" transform="translate(358.000000, 225.000000)">
                <path d="M33.4441146,44.24375 L33.4441146,48.3333333 C33.4441146,48.79375 33.0711979,49.1666667 32.6107812,49.1666667 L2.19411458,49.1666667 C1.73369792,49.1666667 1.36078125,48.79375 1.36078125,48.3333333 L1.36078125,44.24375 C1.36078125,41.0989583 3.23057292,38.3895833 5.91911458,37.1677083 C4.82213542,36.2948958 3.15015625,35.1217708 1.93369792,32.5979167 C0.239427083,29.0877083 0.529427083,24.9466667 2.68786458,21.7052083 C3.86078125,19.9447917 4.48578125,17.878125 4.48578125,15.7635417 L4.48578125,11.25 C4.48578125,5.496875 9.14932292,0.833333333 14.9024479,0.833333333 L19.9024479,0.833333333 C25.6555729,0.833333333 30.3191146,5.496875 30.3191146,11.25 C30.3191146,16.0298958 30.2023437,16.9659375 30.7784896,18.8666667 C31.5915104,21.5542708 32.6653646,21.8867708 33.4930729,24.621875 C34.7942187,28.92125 33.3550521,33.6101042 29.8086979,36.4333333 L28.8857812,37.1677083 C31.5743229,38.3895833 33.4441146,41.0989583 33.4441146,44.24375 Z" id="Path" fill="#F8BBD0"></path>
                <path d="M33.4441146,44.24375 L33.4441146,48.3333333 C33.4441146,48.7935417 33.0709896,49.1666667 32.6107813,49.1666667 L2.19411458,49.1666667 C1.73390625,49.1666667 1.36078125,48.7935417 1.36078125,48.3333333 L1.36078125,44.24375 C1.36078125,39.9560417 4.83671875,36.4760417 9.12848958,36.4760417 C9.76703125,36.4760417 10.3732812,36.3375 10.9180729,36.0895833 L10.9441146,36.1458333 L16.8923438,40.7508333 C17.1926563,40.9833333 17.6122396,40.9833333 17.9126563,40.7508333 L23.8607812,36.1458333 L23.8868229,36.0895833 C24.4316146,36.3375 25.0378646,36.4760417 25.6764063,36.4760417 C29.9516146,36.4760417 33.4441146,39.9394792 33.4441146,44.24375 L33.4441146,44.24375 Z" id="Path" fill="#F48FB1"></path>
                <path d="M26.9263021,16.0685417 C27.3686979,16.09375 27.7149479,16.4572917 27.7149479,16.9004167 L27.7149479,21.8885417 C27.7149479,26.1875 25.0847396,29.871875 21.3451563,31.4197917 C14.5829688,34.2267708 7.08994792,29.2402083 7.08994792,21.8885417 L7.08994792,16.9729167 C7.08994792,16.4844792 7.50828125,16.0985417 7.99473958,16.1426042 C12.9933854,16.5958333 17.9157813,15.3335417 22.0492188,12.5489583 C22.5193229,12.2322917 23.1666146,12.466875 23.3150521,13.0139583 C23.8293229,14.9091667 25.2317188,15.9719792 26.9263021,16.0685417 L26.9263021,16.0685417 Z" id="Path" fill="#F8BBD0"></path>
                <path d="M29.8088021,36.4333333 L28.8858854,37.1678125 C27.9077604,36.7239583 26.8213021,36.4760417 25.6765104,36.4760417 C23.2984896,36.4760417 21.3608854,34.5557292 21.3608854,32.1697917 L21.3608854,31.4583333 L21.3452604,31.4197917 C25.0848437,29.871875 27.7150521,26.1875 27.7150521,21.8885417 L27.7150521,16.9004167 C27.7150521,16.4572917 27.3686979,16.09375 26.9264062,16.0685417 C25.2422396,15.9726042 23.8327604,14.9213542 23.3152604,13.0140625 C23.1668229,12.4669792 22.5195312,12.2323958 22.0494271,12.5490625 C17.9186979,15.3317708 12.9966146,16.5961458 7.99494792,16.1427083 C7.50848958,16.0986458 7.09015625,16.4845833 7.09015625,16.9730208 L7.09015625,21.8886458 C7.09015625,26.1876042 9.72036458,29.8719792 13.4599479,31.4198958 L13.4443229,31.4584375 L13.4443229,32.1698958 C13.4443229,34.5554167 11.5072396,36.4761458 9.12869792,36.4761458 C7.98390625,36.4761458 6.89744792,36.7240625 5.91932292,37.1678125 L4.99640625,36.4334375 C0.51609375,32.8634375 -0.481510417,26.4652083 2.68807292,21.7053125 C3.86098958,19.9448958 4.48598958,17.8782292 4.48598958,15.7636458 L4.48598958,11.25 C4.48598958,5.49708333 9.14973958,0.833333333 14.9026562,0.833333333 L19.9026562,0.833333333 C25.6555729,0.833333333 30.3193229,5.49708333 30.3193229,11.25 L30.3193229,15.7635417 C30.3193229,17.875625 30.9443229,19.9447917 32.1172396,21.7052083 C35.2982812,26.4825 34.2721354,32.88 29.8088021,36.4333333 Z" id="Path" fill="#F48FB1"></path>
                <path d="M21.4785937,33.16875 C18.9122396,34.2430208 16.0919271,34.3263542 13.3265104,33.16875 C13.4677604,32.5827083 13.4442187,32.203125 13.4442187,31.4583333 L13.4598437,31.4197917 C15.9683854,32.4610417 18.8318229,32.463125 21.3452604,31.4197917 L21.3608854,31.4583333 C21.3607812,32.2034375 21.3373437,32.5829167 21.4785937,33.16875 Z" id="Path" fill="#F06292"></path>
                <path d="M24.6082813,1.954375 C25.6720313,2.49395833 25.2097396,4.11760417 24.0222396,4.00520833 C23.6948438,3.97416667 23.3629688,3.95833333 23.0274479,3.95833333 L18.0274479,3.95833333 C12.2745313,3.95833333 7.61078125,8.62208333 7.61078125,14.375 L7.61078125,15.6425 C7.61078125,16.3908333 7.08994792,16.3666667 7.08994792,16.9729167 C7.08994792,22.4752083 7.11223958,22.126875 7.03151042,22.3642708 C6.21432292,24.7682292 5.23296875,25.1161458 4.43682292,27.746875 C4.00317708,29.1797917 3.87505208,30.6554167 4.02526042,32.0873958 C4.14786458,33.2561458 2.52046875,33.8152083 1.93369792,32.5979167 C0.251510417,29.1128125 0.514947917,24.9684375 2.68786458,21.7052083 C3.86078125,19.9447917 4.48578125,17.878125 4.48578125,15.7635417 L4.48578125,11.25 C4.48578125,5.49708333 9.14953125,0.833333333 14.9024479,0.833333333 L19.9024479,0.833333333 C21.5958854,0.833333333 23.1948438,1.23739583 24.6082813,1.954375 Z" id="Path" fill="#FCE4EC"></path>
                <path d="M15.4255729,28.7967708 C16.9817187,29.8384375 15.7956771,32.2478125 14.0286979,31.6277083 C10.1447396,30.2647917 7.09005208,26.6398958 7.09005208,21.8884375 L7.09005208,16.9728125 C7.09005208,16.4842708 7.50880208,16.0988542 7.99526042,16.1426042 C8.39442708,16.1788542 8.83265625,16.2073958 9.30578125,16.221875 C10.1619271,16.2479167 10.8400521,16.9548958 10.8400521,17.8114583 L10.8400521,20.221875 C10.8400521,23.8495833 12.6896354,26.9654167 15.4255729,28.7967708 L15.4255729,28.7967708 Z" id="Path" fill="#FCE4EC"></path>
                <path d="M12.6622396,37.4759375 C13.1566146,37.8586458 12.8953646,38.6611458 12.2701562,38.6635417 C7.86046875,38.68 4.48588542,42.2207292 4.48588542,46.43125 L4.48588542,49.1666667 L2.19421875,49.1666667 C1.73401042,49.1666667 1.36088542,48.7935417 1.36088542,48.3333333 L1.36088542,44.24375 C1.36088542,39.9559375 4.83692708,36.4760417 9.12859375,36.4760417 C9.76713542,36.4760417 10.3733854,36.3375 10.9181771,36.0895833 L10.9442187,36.1458333 L12.6622396,37.4759375 Z" id="Path" fill="#FCE4EC"></path>
                <path d="M22.1427604,37.4759375 C21.6483854,37.8586458 21.9096354,38.6611458 22.5348437,38.6635417 C26.9445312,38.68 30.3191146,42.2207292 30.3191146,46.43125 L30.3191146,49.1666667 L32.6107812,49.1666667 C33.0709896,49.1666667 33.4441146,48.7935417 33.4441146,48.3333333 L33.4441146,44.24375 C33.4441146,39.9559375 29.9680729,36.4760417 25.6764062,36.4760417 C25.0378646,36.4760417 24.4316146,36.3375 23.8868229,36.0895833 L23.8607812,36.1458333 L22.1427604,37.4759375 Z" id="Path" fill="#FCE4EC"></path>
                <path d="M34.2774479,44.2440625 L34.2774479,49.1666667 C34.2774479,49.626875 33.9043229,50 33.4441146,50 C32.9839062,50 32.6107812,49.626875 32.6107812,49.1666667 L32.6107812,44.2440625 C32.6107812,40.4113542 29.5092187,37.3094792 25.6760937,37.3095833 C23.8624479,37.3095833 22.2169271,36.385625 21.2742187,34.8379167 C21.0347396,34.4448958 21.1593229,33.9321875 21.5523437,33.6927083 C21.9452604,33.453125 22.4580729,33.5778125 22.6975521,33.9708333 C23.3353646,35.0178125 24.4488021,35.6428125 25.6760937,35.6428125 C30.4299479,35.6428125 34.2774479,39.4896875 34.2774479,44.2440625 L34.2774479,44.2440625 Z M20.3743229,37.7911458 L17.4024479,40.091875 L12.3495312,36.1798958 C13.4402604,35.30375 14.1455729,34.029375 14.2598437,32.5819792 C15.2570312,32.8755208 16.3116146,33.03375 17.4025521,33.03375 C23.5483854,33.03375 28.5483854,28.03375 28.5483854,21.8879167 C28.5483854,21.823125 28.5498437,16.0533333 28.5456771,15.98875 C28.5173437,15.5379167 28.1414062,15.2082292 27.7150521,15.2082292 C27.5723437,15.2082292 26.5455729,15.4113542 25.5404687,14.8066667 C23.9729687,13.8636458 23.9649479,11.7965625 23.9650521,11.7758333 C23.9691146,11.09875 23.2034896,10.6991667 22.6502604,11.0905208 C19.2177604,13.5204167 15.1985937,15.168125 10.8343229,15.7790625 C10.3785937,15.8429167 10.0607812,16.2640625 10.1246354,16.7198958 C10.1829687,17.1365625 10.5398437,17.4378125 10.9489062,17.4378125 C11.0801562,17.4378125 13.7822396,17.1070833 16.8538021,15.9914583 C18.8327604,15.2727083 20.7289062,14.3347917 22.5067187,13.1963542 C23.1209896,15.5011458 24.8435937,16.7833333 26.8818229,16.8990625 L26.8818229,21.8879167 C26.8818229,27.1147917 22.6295312,31.3670833 17.4026562,31.3670833 C12.1757812,31.3670833 7.92348958,27.1147917 7.92348958,21.8879167 L7.92348958,16.0416667 C7.92348958,15.5814583 7.55036458,15.2083333 7.09015625,15.2083333 C6.62994792,15.2083333 6.25682292,15.5814583 6.25682292,16.0416667 L6.25682292,21.8880208 C6.25682292,26.3194792 8.85661458,30.1548958 12.6109896,31.95 L12.6109896,32.1697917 C12.6109896,34.0907292 11.0543229,35.6428125 9.12901042,35.6428125 C8.07473958,35.6428125 7.03598958,35.8335417 6.05338542,36.2091667 L5.51536458,35.7809375 C1.29338542,32.420625 0.50265625,26.4885417 3.38192708,22.1665625 C4.60901042,20.3245833 5.31932292,18.1214583 5.31932292,15.7642708 L5.31932292,11.2504167 C5.31932292,5.9659375 9.61838542,1.66666667 14.9026562,1.66666667 L19.9026562,1.66666667 C25.1869271,1.66666667 29.4859896,5.96572917 29.4859896,11.25 L29.4859896,15.7638542 C29.4859896,18.0566667 30.1527604,20.2660417 31.4142187,22.1530208 C33.7213021,25.6041667 33.7167187,30.1336458 31.3328646,33.5928125 C31.0717187,33.9717708 31.1671354,34.4907292 31.5460937,34.751875 C31.9250521,35.0129167 32.4439062,34.9175 32.7050521,34.5385417 C35.4801562,30.5119792 35.4833854,25.24125 32.7997396,21.2267708 C31.7221354,19.6147917 31.1525521,17.7258333 31.1525521,15.7638542 L31.1525521,11.25 C31.1525521,5.04677083 26.1057812,5.55111512e-15 19.9025521,5.55111512e-15 L14.9025521,5.55111512e-15 C8.69932292,5.55111512e-15 3.65255208,5.04697917 3.65255208,11.2504167 L3.65255208,15.7638542 C3.65255208,17.7201042 3.07932292,19.6145833 1.99463542,21.2427083 C-1.36526042,26.2866667 -0.413072917,33.1466667 4.42453125,37.0417708 C2.04807292,38.6007292 0.527552083,41.2482292 0.527552083,44.2440625 L0.527552083,49.1666667 C0.527552083,49.626875 0.900677083,50 1.36088542,50 C1.82109375,50 2.19421875,49.626875 2.19421875,49.1666667 L2.19421875,44.2440625 C2.19421875,40.41125 5.29578125,37.3094792 9.12890625,37.3095833 C9.68119792,37.3095833 10.2268229,37.2219792 10.7500521,37.049375 L16.8923437,41.8046875 C17.1927604,42.0371875 17.6123437,42.0371875 17.9126562,41.8046875 L21.3946354,39.1089583 C21.7585937,38.8271875 21.8251562,38.3038542 21.5433854,37.9398958 C21.2617187,37.5761458 20.7383854,37.509375 20.3743229,37.7911458 L20.3743229,37.7911458 Z" id="Shape" fill="#C2185B"></path>
            </g>
        </g>
    </g>
</svg>