<?xml version="1.0" encoding="UTF-8"?>
<svg width="24px" height="24px" viewBox="0 0 24 24" version="1.1" xmlns="http://www.w3.org/2000/svg" xmlns:xlink="http://www.w3.org/1999/xlink">
    <title>Group 3</title>
    <g id="Udea-Egresados-Móvil-" stroke="none" stroke-width="1" fill="none" fill-rule="evenodd">
        <g id="15-User-Profile-Móv" transform="translate(-53.000000, -561.000000)" fill-rule="nonzero">
            <g id="Group-7" transform="translate(40.000000, 548.000000)">
                <g id="Group-3" transform="translate(13.000000, 13.000000)">
                    <path d="M23.1516276,0.285872396 C22.975,0.109179687 22.7308594,-5.92118946e-16 22.4609375,-5.92118946e-16 L16.6015625,-5.92118946e-16 C16.0617839,-5.92118946e-16 15.625,0.436783854 15.625,0.9765625 C15.625,1.51634115 16.0617839,1.953125 16.6015625,1.953125 L20.1034505,1.953125 L13.6232422,8.43333333 C13.2417969,8.81477865 13.2417969,9.4328125 13.6232422,9.81425781 C14.0046875,10.1957031 14.6227214,10.1957031 15.0041667,9.81425781 L21.484375,3.33404948 L21.484375,6.8359375 C21.484375,7.37571615 21.9211589,7.8125 22.4609375,7.8125 C23.0007161,7.8125 23.4375,7.37571615 23.4375,6.8359375 L23.4375,0.9765625 C23.4375,0.706640625 23.3283203,0.4625 23.1516276,0.285872396 Z" id="Path" fill="#64B5F6"></path>
                    <path d="M15.0041667,9.81425781 L21.484375,3.33404948 L21.484375,6.8359375 C21.484375,7.37571615 21.9211589,7.8125 22.4609375,7.8125 C23.0007161,7.8125 23.4375,7.37571615 23.4375,6.8359375 L23.4375,0.9765625 C23.4375,0.706640625 23.3283203,0.4625 23.1516276,0.285872396 L13.6232422,9.81425781 C14.0046875,10.1957031 14.6226563,10.1957031 15.0041667,9.81425781 Z" id="Path" fill="#1565C0"></path>
                    <path d="M15.0010417,8.43645833 C13.4096354,6.84498698 11.2123698,5.859375 8.7890625,5.859375 C3.84453125,5.859375 0,9.94791667 0,14.6484375 C0,16.9428385 0.903841146,19.016862 2.34863281,20.5836589 L2.49023438,20.9472656 L2.78229167,21.6972005 L3.90625,21.9496745 C5.30410156,22.8875 6.98294271,23.4375 8.7890625,23.4375 C13.635612,23.4375 17.578125,19.494987 17.578125,14.6484375 C17.578125,12.2251302 16.592513,10.0278646 15.0010417,8.43645833 Z M8.7890625,21.484375 C7.57610677,21.484375 6.45240885,21.1401042 5.46386719,20.5836589 L4.74264323,19.4577474 L4.01484375,19.4227214 L3.90625,19.4173828 C2.70188802,18.184375 1.953125,16.503776 1.953125,14.6484375 C1.953125,10.661849 5.32981771,7.8125 8.7890625,7.8125 C10.6735026,7.8125 12.382487,8.57923177 13.6203776,9.8171224 C14.8582682,11.055013 15.625,12.7639974 15.625,14.6484375 C15.625,18.4173828 12.5580078,21.484375 8.7890625,21.484375 Z" id="Shape" fill="#1565C0"></path>
                    <path d="M3.90625,21.9496745 C5.30410156,22.8875 6.98294271,23.4375 8.7890625,23.4375 C13.635612,23.4375 17.578125,19.494987 17.578125,14.6484375 C17.578125,12.2251302 16.592513,10.0278646 15.0010417,8.43645833 L13.6203776,9.8171224 C14.8582682,11.055013 15.625,12.7639974 15.625,14.6484375 C15.625,18.4173828 12.5580078,21.484375 8.7890625,21.484375 C7.57610677,21.484375 6.45240885,21.1401042 5.46386719,20.5836589 L4.74264323,19.4577474 L4.01484375,19.4227214 L2.49029948,20.9472656 L2.78235677,21.6972005 L3.90625,21.9496745 Z" id="Path" fill="#64B5F6"></path>
                </g>
            </g>
        </g>
    </g>
</svg>