<?xml version="1.0" encoding="UTF-8"?>
<svg width="15px" height="24px" viewBox="0 0 15 24" version="1.1" xmlns="http://www.w3.org/2000/svg" xmlns:xlink="http://www.w3.org/1999/xlink">
    <title>Group</title>
    <g id="UdeA-Egresados-Tablet" stroke="none" stroke-width="1" fill="none" fill-rule="evenodd">
        <g id="01-User-SingularContent-Academic-State-HD-Copy-2" transform="translate(-262.000000, -641.000000)">
            <g id="Group-2" transform="translate(204.000000, 150.000000)">
                <g id="Group" transform="translate(58.000000, 491.000000)">
                    <path d="M7.61383929,13.7142857 C7.15117188,13.7142857 6.77678571,14.0886719 6.77678571,14.5513393 L6.77678571,23.0334821 C6.77678571,23.4961496 7.15117188,23.8705357 7.61383929,23.8705357 C8.0765067,23.8705357 8.45089286,23.4961496 8.45089286,23.0334821 L8.45089286,14.5513393 C8.45089286,14.0886719 8.0765067,13.7142857 7.61383929,13.7142857 Z" id="Path" fill="#E91E63" fill-rule="nonzero"></path>
                    <path d="M8.45089286,23.0334821 L8.45089286,14.5513393 C8.45089286,14.0886719 8.0765067,13.7142857 7.61383929,13.7142857 L7.61383929,23.8705357 C8.0765067,23.8705357 8.45089286,23.4961496 8.45089286,23.0334821 Z" id="Path" fill="#F48FB1" fill-rule="nonzero"></path>
                    <path d="M10.9620536,18.7924107 L7.61383929,18.7924107 L4.265625,18.7924107 C3.80295759,18.7924107 3.42857143,19.1667969 3.42857143,19.6294643 C3.42857143,20.0921317 3.80295759,20.4665179 4.265625,20.4665179 L7.61383929,20.4665179 L10.9620536,20.4665179 C11.424721,20.4665179 11.7991071,20.0921317 11.7991071,19.6294643 C11.7991071,19.1667969 11.424721,18.7924107 10.9620536,18.7924107 Z" id="Path" fill="#E91E63" fill-rule="nonzero"></path>
                    <path d="M11.7991071,19.6294643 C11.7991071,19.1667969 11.424721,18.7924107 10.9620536,18.7924107 L7.61383929,18.7924107 L7.61383929,20.4665179 L10.9620536,20.4665179 C11.424721,20.4665179 11.7991071,20.0921317 11.7991071,19.6294643 Z" id="Path" fill="#F48FB1" fill-rule="nonzero"></path>
                    <path d="M7.42857143,0 C11.5312581,0 14.8571429,3.32588472 14.8571429,7.42857143 C14.8571429,11.5312581 11.5312581,14.8571429 7.42857143,14.8571429 C3.32588472,14.8571429 0,11.5312581 0,7.42857143 C0,3.32588472 3.32588472,0 7.42857143,0 Z M7.42857143,1.14285714 C3.95706729,1.14285714 1.14285714,3.95706729 1.14285714,7.42857143 C1.14285714,10.9000756 3.95706729,13.7142857 7.42857143,13.7142857 C10.9000756,13.7142857 13.7142857,10.9000756 13.7142857,7.42857143 C13.7142857,3.95706729 10.9000756,1.14285714 7.42857143,1.14285714 Z" id="Combined-Shape" fill="#F48FB1"></path>
                    <path d="M14.8565825,7.42857143 C14.8565825,11.3502263 11.8354558,14.5641925 8.00007137,14.8571374 L8.0006417,13.7068874 C11.2037819,13.416773 13.7137254,10.7166451 13.7137254,7.42857143 C13.7137254,4.14049781 11.2037819,1.44036989 8.0006417,1.15025542 L8.00007137,5.45065263e-06 C11.8354558,0.29295037 14.8565825,3.50691658 14.8565825,7.42857143 Z" id="Combined-Shape" fill="#E91E63"></path>
                </g>
            </g>
        </g>
    </g>
</svg>